<svg width="61" height="55" viewBox="0 0 61 55" fill="none" xmlns="http://www.w3.org/2000/svg">
<path d="M3.66683 5.99992C3.66683 2.8703 6.20388 0.333252 9.3335 0.333252H54.6668C57.7965 0.333252 60.3335 2.8703 60.3335 5.99992V39.9999C60.3335 43.1296 57.7965 45.6666 54.6668 45.6666H33.4219C33.9824 44.323 34.3881 42.899 34.617 41.4166H54.6668C55.4491 41.4166 56.0835 40.7822 56.0835 39.9999V5.99992C56.0835 5.21752 55.4491 4.58325 54.6668 4.58325H19.2502V20.3831C18.3266 20.2405 17.3804 20.1666 16.4168 20.1666C15.9401 20.1666 15.4677 20.1847 15.0002 20.2201V4.58325H9.3335C8.5511 4.58325 7.91683 5.21752 7.91683 5.99992V22.2412C6.35561 23.0549 4.92559 24.0857 3.66683 25.2938V5.99992ZM32.0002 8.83325C28.8705 8.83325 26.3335 11.3703 26.3335 14.4999V17.3333C26.3335 20.463 28.8705 22.9999 32.0002 22.9999H43.3335C46.4632 22.9999 49.0002 20.463 49.0002 17.3333V14.4999C49.0002 11.3703 46.4632 8.83325 43.3335 8.83325H32.0002ZM43.3335 13.0833C44.1158 13.0833 44.7502 13.7175 44.7502 14.4999V17.3333C44.7502 18.1155 44.1158 18.7499 43.3335 18.7499H32.0002C31.2179 18.7499 30.5835 18.1155 30.5835 17.3333V14.4999C30.5835 13.7175 31.2179 13.0833 32.0002 13.0833H43.3335ZM16.4168 22.9999C25.0233 22.9999 32.0002 29.9767 32.0002 38.5833C32.0002 47.1898 25.0233 54.1666 16.4168 54.1666C7.81038 54.1666 0.833496 47.1898 0.833496 38.5833C0.833496 29.9767 7.81038 22.9999 16.4168 22.9999ZM17.8366 47.0932L17.8353 39.9999H24.9072C25.6888 39.9999 26.3224 39.3658 26.3224 38.5833C26.3224 37.801 25.6888 37.1666 24.9072 37.1666H17.8348L17.8335 30.0813C17.8335 29.2987 17.1992 28.6646 16.4168 28.6646C15.6344 28.6646 15.0002 29.2987 15.0002 30.0813L15.0015 37.1666H7.90436C7.12273 37.1666 6.48908 37.801 6.48908 38.5833C6.48908 39.3658 7.12273 39.9999 7.90436 39.9999H15.002L15.0033 47.0932C15.0033 47.8757 15.6376 48.5098 16.42 48.5098C17.2024 48.5098 17.8366 47.8757 17.8366 47.0932Z" fill="#ECDDA7"/>
</svg>
