<svg width="58" height="46" viewBox="0 0 58 46" fill="none" xmlns="http://www.w3.org/2000/svg">
<path d="M7.0415 0.333252C3.52069 0.333252 0.666504 3.18744 0.666504 6.70825V13.7916C0.666504 17.3124 3.52069 20.1666 7.0415 20.1666H14.1248C17.6457 20.1666 20.4998 17.3124 20.4998 13.7916V6.70825C20.4998 3.18744 17.6457 0.333252 14.1248 0.333252H7.0415ZM4.9165 6.70825C4.9165 5.53466 5.86791 4.58325 7.0415 4.58325H14.1248C15.2984 4.58325 16.2498 5.53466 16.2498 6.70825V13.7916C16.2498 14.9652 15.2984 15.9166 14.1248 15.9166H7.0415C5.86791 15.9166 4.9165 14.9652 4.9165 13.7916V6.70825ZM26.8748 3.16659C25.7013 3.16659 24.7498 4.11799 24.7498 5.29159C24.7498 6.46518 25.7013 7.41659 26.8748 7.41659H55.2082C56.3817 7.41659 57.3332 6.46518 57.3332 5.29159C57.3332 4.11799 56.3817 3.16659 55.2082 3.16659H26.8748ZM26.8748 11.6666C25.7013 11.6666 24.7498 12.618 24.7498 13.7916C24.7498 14.9652 25.7013 15.9166 26.8748 15.9166H46.7082C47.8817 15.9166 48.8332 14.9652 48.8332 13.7916C48.8332 12.618 47.8817 11.6666 46.7082 11.6666H26.8748ZM7.0415 25.8333C3.52069 25.8333 0.666504 28.6876 0.666504 32.2083V39.2916C0.666504 42.8123 3.52069 45.6666 7.0415 45.6666H14.1248C17.6457 45.6666 20.4998 42.8123 20.4998 39.2916V32.2083C20.4998 28.6876 17.6457 25.8333 14.1248 25.8333H7.0415ZM4.9165 32.2083C4.9165 31.0347 5.86791 30.0833 7.0415 30.0833H14.1248C15.2984 30.0833 16.2498 31.0347 16.2498 32.2083V39.2916C16.2498 40.4652 15.2984 41.4166 14.1248 41.4166H7.0415C5.86791 41.4166 4.9165 40.4652 4.9165 39.2916V32.2083ZM26.8748 28.6666C25.7013 28.6666 24.7498 29.618 24.7498 30.7916C24.7498 31.9652 25.7013 32.9166 26.8748 32.9166H55.2082C56.3817 32.9166 57.3332 31.9652 57.3332 30.7916C57.3332 29.618 56.3817 28.6666 55.2082 28.6666H26.8748ZM26.8748 37.1666C25.7013 37.1666 24.7498 38.118 24.7498 39.2916C24.7498 40.4652 25.7013 41.4166 26.8748 41.4166H46.7082C47.8817 41.4166 48.8332 40.4652 48.8332 39.2916C48.8332 38.118 47.8817 37.1666 46.7082 37.1666H26.8748Z" fill="#ECDDA7"/>
</svg>
