<svg width="59" height="57" viewBox="0 0 59 57" fill="none" xmlns="http://www.w3.org/2000/svg">
<path d="M25.4494 1.22489C28.0473 0.17178 30.9527 0.17178 33.5506 1.22489L55.1091 9.96481C57.0077 10.7345 58.25 12.5787 58.25 14.6275V42.379C58.25 44.4278 57.0077 46.2718 55.1091 47.0417L33.5506 55.7814C30.9527 56.8346 28.0473 56.8346 25.4494 55.7814L3.89099 47.0417C1.99232 46.2718 0.75 44.4278 0.75 42.379V14.6275C0.75 12.5787 1.99232 10.7345 3.89099 9.96481L25.4494 1.22489ZM31.9302 5.22146C30.3717 4.58959 28.6283 4.58959 27.0698 5.22146L21.5678 7.45194L43.2074 15.8674L50.8814 12.9043L31.9302 5.22146ZM37.2369 18.1726L15.7423 9.81361L8.19708 12.8725L29.5037 21.1584L37.2369 18.1726ZM5.0625 42.379C5.0625 42.6717 5.23997 42.9351 5.5112 43.0452L27.0698 51.7849C27.1606 51.822 27.2526 51.8568 27.3446 51.8893V24.9459L5.0625 16.2806V42.379ZM31.9302 51.7849L53.4887 43.0452C53.7601 42.9351 53.9375 42.6717 53.9375 42.379V16.3471L31.6571 24.9497V51.8887C31.7488 51.8562 31.84 51.8217 31.9302 51.7849Z" fill="#ECDDA7"/>
</svg>
