<svg width="48" height="60" viewBox="0 0 48 60" fill="none" xmlns="http://www.w3.org/2000/svg">
<path d="M12 23.25C12 22.0074 13.0074 21 14.25 21H33.75C34.9926 21 36 22.0074 36 23.25C36 24.4926 34.9926 25.5 33.75 25.5H14.25C13.0074 25.5 12 24.4926 12 23.25ZM17.25 30C14.3505 30 12 32.3505 12 35.25V42.75C12 45.6495 14.3505 48 17.25 48H30.75C33.6495 48 36 45.6495 36 42.75V35.25C36 32.3505 33.6495 30 30.75 30H17.25ZM16.5 35.25C16.5 34.8357 16.8358 34.5 17.25 34.5H30.75C31.1643 34.5 31.5 34.8357 31.5 35.25V42.75C31.5 43.1643 31.1643 43.5 30.75 43.5H17.25C16.8358 43.5 16.5 43.1643 16.5 42.75V35.25ZM29.25 0C32.7267 0 35.5893 2.6283 35.9595 6.00627C35.9592 6.0036 35.9589 6.00096 35.9586 5.99832L41.25 6C44.9778 6 48 9.02208 48 12.75V53.25C48 56.9778 44.9778 60 41.25 60H6.75C3.02208 60 0 56.9778 0 53.25V12.75C0 9.02208 3.02208 6 6.75 6L12.0414 5.99832C12.4152 2.62416 15.2761 0 18.75 0H29.25ZM35.9844 6.28785L36 6.75C36 6.59466 35.9949 6.44055 35.9844 6.28785ZM29.25 13.5H18.75C16.4099 13.5 14.3479 12.3092 13.137 10.5005L6.75 10.5C5.50737 10.5 4.5 11.5074 4.5 12.75V53.25C4.5 54.4926 5.50737 55.5 6.75 55.5H41.25C42.4926 55.5 43.5 54.4926 43.5 53.25V12.75C43.5 11.5074 42.4926 10.5 41.25 10.5L34.863 10.5006C33.6519 12.3093 31.59 13.5 29.25 13.5ZM29.25 4.5H18.75C17.5074 4.5 16.5 5.50737 16.5 6.75C16.5 7.99263 17.5074 9 18.75 9H29.25C30.4926 9 31.5 7.99263 31.5 6.75C31.5 5.50737 30.4926 4.5 29.25 4.5Z" fill="#ECDDA7"/>
</svg>
