<svg width="117" height="117" viewBox="0 0 117 117" fill="none" xmlns="http://www.w3.org/2000/svg">
<path d="M51.5718 12C54.651 6.66667 62.349 6.66667 65.4282 12L102.234 75.75C105.313 81.0833 101.464 87.75 95.3061 87.75H21.6939C15.5355 87.75 11.6865 81.0833 14.7657 75.75L51.5718 12Z" fill="#FFD875"/>
<path d="M55.15 59.85L53.6 37H62.9L61.35 59.85H55.15ZM58.25 72.4C56.85 72.4 55.7 71.95 54.8 71.05C53.9 70.15 53.45 69.0833 53.45 67.85C53.45 66.5833 53.9 65.5333 54.8 64.7C55.7 63.8333 56.85 63.4 58.25 63.4C59.6833 63.4 60.8333 63.8333 61.7 64.7C62.6 65.5333 63.05 66.5833 63.05 67.85C63.05 69.0833 62.6 70.15 61.7 71.05C60.8333 71.95 59.6833 72.4 58.25 72.4Z" fill="black"/>
</svg>
