<svg width="82" height="82" viewBox="0 0 82 82" fill="none" xmlns="http://www.w3.org/2000/svg">
<path d="M41.0002 27.3334C40.094 27.3334 39.225 27.6933 38.5842 28.3341C37.9435 28.9748 37.5835 29.8439 37.5835 30.75V68.3334C37.5835 69.2395 37.9435 70.1086 38.5842 70.7493C39.225 71.39 40.094 71.75 41.0002 71.75C41.9063 71.75 42.7754 71.39 43.4161 70.7493C44.0569 70.1086 44.4168 69.2395 44.4168 68.3334V30.75C44.4168 29.8439 44.0569 28.9748 43.4161 28.3341C42.7754 27.6933 41.9063 27.3334 41.0002 27.3334Z" fill="#CBB68C"/>
<path d="M64.9162 13.6666C64.01 13.6666 63.141 14.0266 62.5002 14.6673C61.8595 15.3081 61.4995 16.1771 61.4995 17.0833V68.3333C61.4995 69.2394 61.8595 70.1085 62.5002 70.7492C63.141 71.39 64.01 71.7499 64.9162 71.7499C65.8223 71.7499 66.6914 71.39 67.3321 70.7492C67.9729 70.1085 68.3328 69.2394 68.3328 68.3333V17.0833C68.3328 16.1771 67.9729 15.3081 67.3321 14.6673C66.6914 14.0266 65.8223 13.6666 64.9162 13.6666Z" fill="#CBB68C"/>
<path d="M17.0832 41C16.177 41 15.308 41.36 14.6672 42.0007C14.0265 42.6415 13.6665 43.5105 13.6665 44.4167V68.3333C13.6665 69.2395 14.0265 70.1085 14.6672 70.7493C15.308 71.39 16.177 71.75 17.0832 71.75C17.9893 71.75 18.8584 71.39 19.4991 70.7493C20.1399 70.1085 20.4998 69.2395 20.4998 68.3333V44.4167C20.4998 43.5105 20.1399 42.6415 19.4991 42.0007C18.8584 41.36 17.9893 41 17.0832 41Z" fill="#CBB68C"/>
</svg>
