<svg width="82" height="82" viewBox="0 0 82 82" fill="none" xmlns="http://www.w3.org/2000/svg">
<path d="M64.9168 17.0833H17.0835C14.365 17.0833 11.7579 18.1632 9.83565 20.0854C7.9134 22.0077 6.8335 24.6148 6.8335 27.3332V54.6666C6.8335 57.385 7.9134 59.9922 9.83565 61.9144C11.7579 63.8367 14.365 64.9166 17.0835 64.9166H64.9168C67.6353 64.9166 70.2424 63.8367 72.1646 61.9144C74.0869 59.9922 75.1668 57.385 75.1668 54.6666V27.3332C75.1668 24.6148 74.0869 22.0077 72.1646 20.0854C70.2424 18.1632 67.6353 17.0833 64.9168 17.0833ZM37.5835 51.2499H23.9168C23.0107 51.2499 22.1416 50.8899 21.5009 50.2492C20.8601 49.6084 20.5002 48.7394 20.5002 47.8332C20.5002 46.9271 20.8601 46.058 21.5009 45.4173C22.1416 44.7765 23.0107 44.4166 23.9168 44.4166H37.5835C38.4896 44.4166 39.3587 44.7765 39.9994 45.4173C40.6402 46.058 41.0001 46.9271 41.0001 47.8332C41.0001 48.7394 40.6402 49.6084 39.9994 50.2492C39.3587 50.8899 38.4896 51.2499 37.5835 51.2499ZM58.0835 51.2499H51.2501C50.344 51.2499 49.4749 50.8899 48.8342 50.2492C48.1934 49.6084 47.8335 48.7394 47.8335 47.8332C47.8335 46.9271 48.1934 46.058 48.8342 45.4173C49.4749 44.7765 50.344 44.4166 51.2501 44.4166H58.0835C58.9896 44.4166 59.8587 44.7765 60.4994 45.4173C61.1402 46.058 61.5001 46.9271 61.5001 47.8332C61.5001 48.7394 61.1402 49.6084 60.4994 50.2492C59.8587 50.8899 58.9896 51.2499 58.0835 51.2499ZM68.3335 30.7499H13.6668V27.3332C13.6668 26.4271 14.0268 25.558 14.6675 24.9173C15.3083 24.2766 16.1773 23.9166 17.0835 23.9166H64.9168C65.8229 23.9166 66.692 24.2766 67.3327 24.9173C67.9735 25.558 68.3335 26.4271 68.3335 27.3332V30.7499Z" fill="#CBB68C"/>
</svg>
