<svg width="82" height="82" viewBox="0 0 82 82" fill="none" xmlns="http://www.w3.org/2000/svg">
<path d="M71.7499 38.7788C71.7107 38.1435 71.4948 37.5318 71.1265 37.0126C70.7583 36.4935 70.2524 36.0875 69.6657 35.8405L62.3199 32.6971L70.0416 28.2555C70.589 27.9406 71.0385 27.4802 71.34 26.9253C71.6416 26.3704 71.7835 25.7428 71.7499 25.1121C71.7107 24.4769 71.4948 23.8651 71.1265 23.346C70.7583 22.8268 70.2524 22.4208 69.6657 22.1738L42.3324 10.523C41.9109 10.3444 41.4577 10.2524 40.9999 10.2524C40.5421 10.2524 40.089 10.3444 39.6674 10.523L12.3341 22.1738C11.7475 22.4208 11.2416 22.8268 10.8733 23.346C10.5051 23.8651 10.2892 24.4769 10.2499 25.1121C10.2164 25.7428 10.3583 26.3704 10.6598 26.9253C10.9614 27.4802 11.4108 27.9406 11.9583 28.2555L19.6799 32.6971L12.3341 35.8405C11.7475 36.0875 11.2416 36.4935 10.8733 37.0126C10.5051 37.5318 10.2892 38.1435 10.2499 38.7788C10.2164 39.4095 10.3583 40.0371 10.6598 40.5919C10.9614 41.1468 11.4108 41.6073 11.9583 41.9221L19.6799 46.3638L12.3341 49.5071C11.7475 49.7542 11.2416 50.1601 10.8733 50.6793C10.5051 51.1985 10.2892 51.8102 10.2499 52.4455C10.2164 53.0761 10.3583 53.7037 10.6598 54.2586C10.9614 54.8135 11.4108 55.2739 11.9583 55.5888L39.2916 71.3055C39.811 71.6053 40.4002 71.7632 40.9999 71.7632C41.5997 71.7632 42.1889 71.6053 42.7083 71.3055L70.0416 55.5888C70.589 55.2739 71.0385 54.8135 71.34 54.2586C71.6416 53.7037 71.7835 53.0761 71.7499 52.4455C71.7107 51.8102 71.4948 51.1985 71.1265 50.6793C70.7583 50.1601 70.2524 49.7542 69.6657 49.5071L62.3199 46.3638L70.0416 41.9221C70.589 41.6073 71.0385 41.1468 71.34 40.5919C71.6416 40.0371 71.7835 39.4095 71.7499 38.7788ZM40.9999 17.3905L60.6799 25.7613L40.9999 37.0705L21.3199 25.7613L40.9999 17.3905ZM39.2916 43.9721C39.811 44.272 40.4002 44.4299 40.9999 44.4299C41.5997 44.4299 42.1889 44.272 42.7083 43.9721L54.9058 37.1388L60.6799 39.5988L40.9999 50.7371L21.3199 39.428L27.0941 36.968L39.2916 43.9721ZM60.6799 53.0946L40.9999 64.4038L21.3199 53.0946L27.0941 50.6346L39.2916 57.6388C39.811 57.9387 40.4002 58.0965 40.9999 58.0965C41.5997 58.0965 42.1889 57.9387 42.7083 57.6388L54.9058 50.6346L60.6799 53.0946Z" fill="#CBB68C"/>
</svg>
