<svg width="82" height="82" viewBox="0 0 82 82" fill="none" xmlns="http://www.w3.org/2000/svg">
<path d="M71.7498 20.5H68.3332V17.0833C68.3332 16.1771 67.9732 15.3081 67.3324 14.6673C66.6917 14.0266 65.8227 13.6666 64.9165 13.6666C64.0103 13.6666 63.1413 14.0266 62.5005 14.6673C61.8598 15.3081 61.4998 16.1771 61.4998 17.0833V20.5H58.0832C57.177 20.5 56.308 20.8599 55.6672 21.5007C55.0265 22.1414 54.6665 23.0105 54.6665 23.9166C54.6665 24.8228 55.0265 25.6918 55.6672 26.3326C56.308 26.9733 57.177 27.3333 58.0832 27.3333H61.4998V30.75C61.4998 31.6561 61.8598 32.5251 62.5005 33.1659C63.1413 33.8066 64.0103 34.1666 64.9165 34.1666C65.8227 34.1666 66.6917 33.8066 67.3324 33.1659C67.9732 32.5251 68.3332 31.6561 68.3332 30.75V27.3333H71.7498C72.656 27.3333 73.525 26.9733 74.1658 26.3326C74.8065 25.6918 75.1665 24.8228 75.1665 23.9166C75.1665 23.0105 74.8065 22.1414 74.1658 21.5007C73.525 20.8599 72.656 20.5 71.7498 20.5Z" fill="#CBB68C"/>
<path d="M34.1667 37.5832C36.8697 37.5832 39.512 36.7817 41.7594 35.28C44.0069 33.7782 45.7586 31.6438 46.793 29.1465C47.8274 26.6493 48.098 23.9014 47.5707 21.2503C47.0434 18.5992 45.7418 16.1641 43.8304 14.2528C41.9191 12.3414 39.484 11.0398 36.8329 10.5125C34.1818 9.98515 31.4339 10.2558 28.9367 11.2902C26.4394 12.3246 24.305 14.0763 22.8032 16.3238C21.3015 18.5712 20.5 21.2135 20.5 23.9165C20.5 27.5412 21.9399 31.0173 24.5029 33.5803C27.0659 36.1433 30.542 37.5832 34.1667 37.5832Z" fill="#CBB68C"/>
<path d="M54.6666 71.7499C55.5728 71.7499 56.4418 71.39 57.0826 70.7492C57.7233 70.1085 58.0833 69.2394 58.0833 68.3333C58.0833 61.9902 55.5635 55.9069 51.0783 51.4217C46.593 46.9364 40.5097 44.4166 34.1667 44.4166C27.8236 44.4166 21.7403 46.9364 17.255 51.4217C12.7698 55.9069 10.25 61.9902 10.25 68.3333C10.25 69.2394 10.61 70.1085 11.2507 70.7492C11.8915 71.39 12.7605 71.7499 13.6667 71.7499" fill="#CBB68C"/>
</svg>
