<svg width="646" height="564" viewBox="0 0 646 564" fill="none" xmlns="http://www.w3.org/2000/svg">
<g clip-path="url(#clip0_80_641)">
<path d="M439.423 507.507C444.348 507.639 449.227 506.516 453.599 504.243L640.208 396.487C641.837 395.72 643.232 394.533 644.25 393.047C645.268 391.561 645.872 389.831 646 388.034C646 383.98 643.043 380.088 637.899 377.108L282.282 171.628C272.621 166.034 257.979 165.426 249.533 170.27L63.0871 278.027C59.3404 280.176 57.2746 283.196 57.2746 286.48C57.2746 290.534 60.2518 294.426 65.3757 297.405L421.013 502.885C426.657 505.966 432.993 507.557 439.423 507.507ZM453.275 503.453C445.174 508.176 430.775 507.507 421.317 502.115L65.801 296.716C60.8998 293.878 58.0847 290.149 58.0847 286.581C58.0847 283.581 60.11 280.824 63.4922 278.818L249.938 170.98C258.04 166.257 272.439 166.926 281.877 172.318L637.474 377.797C642.375 380.635 645.19 384.365 645.19 388.034C645.071 389.693 644.508 391.289 643.56 392.655C642.612 394.021 641.314 395.107 639.803 395.797L453.275 503.453Z" fill="#42E8E0"/>
<path d="M57.6795 236.716L84.4738 241.338L249.736 145.946C258.019 141.142 272.5 141.75 282.14 147.284L598.244 329.879L645.595 337.987V354.77C645.595 357.831 643.792 360.852 640.025 362.879L453.599 470.757C445.296 475.541 430.815 474.933 421.195 469.419L65.5983 263.919C60.4541 260.939 57.801 257.149 57.72 253.52L57.6795 236.716Z" fill="url(#paint0_linear_80_641)"/>
<path d="M453.6 453.831L639.924 346.094C648.208 341.31 647.175 332.939 637.595 327.405L282.08 121.925C272.5 116.392 258.019 115.844 249.675 120.587L63.229 228.324C54.9254 233.108 55.9786 241.479 65.5378 247.013L421.195 452.493C430.775 458.108 445.255 458.635 453.6 453.831Z" fill="#24126A"/>
<path d="M65.5984 247.014L421.195 452.493C430.775 458.027 445.255 458.574 453.599 453.831L639.924 346.095C641.319 345.415 642.54 344.424 643.491 343.197C644.443 341.971 645.1 340.542 645.413 339.02C646 342.568 644.218 345.831 639.924 348.284L453.599 456.081C445.296 460.865 430.815 460.277 421.195 454.743L65.5984 249.182C59.8669 245.878 57.2138 241.541 57.7809 237.588C58.2872 240.892 60.8998 244.297 65.5984 247.014Z" fill="white"/>
<path opacity="0.51" d="M453.174 449.655L632.998 345.729C641.099 341.087 640.005 333 630.75 327.648L281.735 126.02C272.48 120.668 258.465 120.101 250.445 124.723L70.6417 228.668C62.5405 233.29 63.6139 241.398 72.8896 246.75L421.884 448.358C431.139 453.709 445.154 454.297 453.174 449.655Z" fill="#453C9E"/>
<path style="mix-blend-mode:lighten" opacity="0.8" d="M439.585 448.723C444.413 448.858 449.195 447.755 453.478 445.521L633.281 341.595C634.896 340.847 636.28 339.676 637.285 338.206C638.29 336.736 638.88 335.021 638.993 333.244C638.993 329.332 636.076 325.419 631.033 322.501L282.019 120.892C272.622 115.46 258.323 114.811 250.141 119.595L70.3377 223.521C68.7277 224.274 67.3499 225.446 66.3486 226.916C65.3472 228.385 64.7595 230.097 64.6467 231.872C64.6467 235.784 67.5428 239.696 72.5858 242.615L421.6 444.223C427.113 447.235 433.304 448.784 439.585 448.723ZM452.891 444.528C445.033 449.068 431.261 448.48 422.167 443.23L73.1731 241.602C68.4744 238.906 65.8011 235.359 65.8011 231.872C65.9236 230.3 66.4631 228.79 67.3638 227.496C68.2646 226.203 69.4939 225.173 70.925 224.514L250.728 120.588C258.586 116.048 272.358 116.534 281.452 121.886L630.446 323.514C635.145 326.21 637.899 329.757 637.899 333.244C637.763 334.815 637.208 336.32 636.292 337.604C635.377 338.887 634.134 339.902 632.694 340.541L452.891 444.528Z" fill="url(#paint1_linear_80_641)"/>
<g opacity="0.1">
<path style="mix-blend-mode:lighten" opacity="0.5" d="M453.174 445.013L632.998 341.088C641.018 336.486 639.924 328.378 630.75 323.007L281.735 121.378C272.48 116.027 258.465 115.459 250.445 120.081L70.6412 224.027C62.5402 228.648 63.6135 236.757 72.8892 242.108L421.884 443.716C431.139 449.067 445.154 449.655 453.174 445.013Z" fill="url(#paint2_radial_80_641)"/>
<path d="M254.576 405.993C254.576 383.391 270.434 355.905 289.998 344.614C299.78 338.939 308.651 338.412 315.071 342.141L321.775 346.074L319.749 346.256C323.273 350.574 325.319 356.939 325.319 365.067C325.319 387.669 309.461 415.155 289.917 426.466C283.193 430.337 276.915 431.817 271.548 431.148L271.71 432.952L264.905 428.898L264.622 428.736C258.424 424.966 254.576 417.121 254.576 405.993Z" fill="#9FFFF8"/>
<path d="M271.736 432.919C257.903 424.926 257.901 399.01 271.732 375.034C285.562 351.058 307.988 338.101 321.821 346.094C335.653 354.088 335.655 380.004 321.824 403.98C307.994 427.956 285.568 440.913 271.736 432.919Z" fill="#42E8E0"/>
</g>
<path opacity="0.4" d="M109.041 241.217C110.579 241.997 112.279 242.403 114.003 242.403C115.727 242.403 117.427 241.997 118.964 241.217C121.719 239.615 121.719 237.163 118.964 235.46C117.427 234.68 115.727 234.273 114.003 234.273C112.279 234.273 110.579 234.68 109.041 235.46C106.286 237.163 106.286 239.676 109.041 241.217Z" fill="#24126A"/>
<path opacity="0.4" d="M146.974 213.608L127.511 224.838C125.142 226.216 125.486 228.628 128.179 230.209C129.588 230.995 131.161 231.439 132.772 231.506C134.383 231.573 135.987 231.261 137.455 230.595L156.918 219.345C159.288 217.966 158.943 215.574 156.25 213.993C154.841 213.207 153.269 212.763 151.658 212.696C150.047 212.629 148.442 212.942 146.974 213.608Z" fill="#24126A"/>
<path opacity="0.4" d="M257.958 146.169L238.495 157.419C236.126 158.797 236.47 161.189 239.164 162.77C240.572 163.556 242.145 164 243.756 164.067C245.367 164.134 246.971 163.822 248.44 163.155L267.902 152.027C270.272 150.648 269.928 148.236 267.234 146.655C265.834 145.853 264.265 145.392 262.654 145.307C261.043 145.223 259.435 145.518 257.958 146.169Z" fill="#24126A"/>
<path d="M109.041 234.283C110.576 235.073 112.277 235.485 114.003 235.485C115.729 235.485 117.429 235.073 118.964 234.283C121.719 232.702 121.719 230.229 118.964 228.547C117.427 227.767 115.727 227.36 114.003 227.36C112.279 227.36 110.579 227.767 109.041 228.547C106.286 230.128 106.286 232.702 109.041 234.283Z" fill="#42E8E0"/>
<path d="M146.974 206.615L127.511 217.865C125.142 219.243 125.486 221.635 128.179 223.216C129.586 224.006 131.159 224.453 132.771 224.52C134.383 224.587 135.988 224.272 137.455 223.601L156.918 212.371C159.288 210.993 158.943 208.601 156.25 207C154.84 206.218 153.267 205.777 151.657 205.71C150.047 205.643 148.444 205.953 146.974 206.615Z" fill="#42E8E0"/>
<path d="M257.958 139.196L238.495 150.426C236.126 151.804 236.47 154.216 239.164 155.797C240.572 156.583 242.145 157.027 243.756 157.094C245.367 157.161 246.971 156.849 248.44 156.182L267.902 144.932C270.272 143.554 269.928 141.162 267.234 139.581C265.826 138.795 264.253 138.351 262.642 138.284C261.031 138.217 259.427 138.53 257.958 139.196Z" fill="#42E8E0"/>
<g opacity="0.3">
<path d="M-0.0606918 479.737V470.635L2.45062 469.237C3.15947 473.534 8.20242 476.351 12.415 476.939L41.113 493.743L53.6494 498.284L93.6283 477.628L92.7169 477.081C96.1396 475.48 97.9623 471.831 99.8256 468.507L102.519 470.108L104.119 470.554V479.878C104.022 480.936 103.644 481.949 103.024 482.811C102.405 483.674 101.566 484.355 100.595 484.784L60.5354 507.933C57.8995 509.271 54.9852 509.969 52.0292 509.969C49.0733 509.969 46.159 509.271 43.5231 507.933L3.46326 484.784C2.51062 484.351 1.68569 483.68 1.06832 482.835C0.450951 481.99 0.0620728 480.999 -0.0606918 479.96V479.716V479.737Z" fill="url(#paint3_linear_80_641)"/>
<path opacity="0.3" d="M12.4756 476.939L41.1736 493.744L52.0898 497.696V509.98C49.1282 510.041 46.2001 509.343 43.5837 507.953L3.52388 484.804C2.57124 484.372 1.74632 483.701 1.12894 482.855C0.511574 482.01 0.122692 481.02 -7.24792e-05 479.98V479.737V470.635L2.28849 469.358H2.53151C3.32137 473.595 8.30354 476.352 12.4756 476.939Z" fill="#0F054C"/>
<path d="M60.5959 498.649L100.656 475.5C105.354 472.784 105.354 468.385 100.656 465.669L60.5959 442.52C57.96 441.181 55.0457 440.483 52.0898 440.483C49.1338 440.483 46.2195 441.181 43.5836 442.52L3.52378 465.669C-1.17484 468.385 -1.17484 472.784 3.52378 475.5L43.5836 498.649C46.2195 499.988 49.1338 500.685 52.0898 500.685C55.0457 500.685 57.96 499.988 60.5959 498.649Z" fill="url(#paint4_linear_80_641)"/>
<g opacity="0.3">
<path d="M60.5959 498.649L100.656 475.5C105.354 472.784 105.354 468.385 100.656 465.669L60.5959 442.52C57.96 441.181 55.0457 440.483 52.0898 440.483C49.1338 440.483 46.2195 441.181 43.5836 442.52L3.52378 465.669C-1.17484 468.385 -1.17484 472.784 3.52378 475.5L43.5836 498.649C46.2195 499.988 49.1338 500.685 52.0898 500.685C55.0457 500.685 57.96 499.988 60.5959 498.649Z" fill="#0F054C"/>
</g>
</g>
<path d="M52.0897 469.439C54.7181 469.494 57.3173 468.881 59.644 467.656L99.7038 444.507C100.65 444.175 101.469 443.556 102.049 442.737C102.629 441.919 102.94 440.94 102.94 439.936C102.94 438.933 102.629 437.954 102.049 437.135C101.469 436.316 100.65 435.698 99.7038 435.365L59.644 412.217C57.3032 411.027 54.7149 410.407 52.0897 410.407C49.4645 410.407 46.8763 411.027 44.5355 412.217L4.47564 435.365C3.52956 435.698 2.71001 436.316 2.13022 437.135C1.55042 437.954 1.23903 438.933 1.23903 439.936C1.23903 440.94 1.55042 441.919 2.13022 442.737C2.71001 443.556 3.52956 444.175 4.47564 444.507L44.495 467.656C46.8337 468.887 49.4478 469.501 52.0897 469.439ZM52.0897 411.102C54.5944 411.048 57.0705 411.642 59.2794 412.825L99.3392 435.973C100.234 436.177 101.033 436.68 101.606 437.398C102.178 438.116 102.49 439.007 102.49 439.926C102.49 440.845 102.178 441.736 101.606 442.454C101.033 443.172 100.234 443.675 99.3392 443.879L59.2794 467.027C57.05 468.166 54.5826 468.76 52.0796 468.76C49.5766 468.76 47.1092 468.166 44.8798 467.027L4.81996 443.919C3.92506 443.715 3.12597 443.213 2.55359 442.495C1.98121 441.777 1.66945 440.885 1.66945 439.967C1.66945 439.048 1.98121 438.156 2.55359 437.438C3.12597 436.72 3.92506 436.218 4.81996 436.014L44.8798 412.865C47.0922 411.668 49.5751 411.061 52.0897 411.102Z" fill="#42E8E0"/>
<path opacity="0.4" d="M-0.0606918 431.047V417.324L2.45062 415.926C3.15947 420.203 8.20242 423.02 12.415 423.608L41.113 440.412L53.6494 444.953L93.6283 424.297L92.7169 423.75C96.1396 422.169 97.9623 418.5 99.8256 415.176L102.519 416.777L104.119 417.223V431.189C104.013 432.247 103.632 433.258 103.014 434.123C102.395 434.987 101.561 435.674 100.595 436.115L60.5354 459.264C57.8967 460.593 54.9835 461.286 52.0292 461.286C49.075 461.286 46.1618 460.593 43.5231 459.264L3.46326 436.115C2.50791 435.681 1.68124 435.006 1.06369 434.157C0.446129 433.308 0.058754 432.314 -0.0606918 431.27V431.047Z" fill="#42E8E0"/>
<path d="M-0.0606918 418.845V409.764L2.45062 408.365C3.15947 412.642 8.20242 415.48 12.415 416.068L41.113 432.852L53.6494 437.392L93.6283 416.737L92.7169 416.19C96.1396 414.609 97.9623 410.94 99.8256 407.615L102.519 409.217L104.119 409.663V418.987C104.024 420.045 103.647 421.059 103.027 421.922C102.407 422.784 101.567 423.465 100.595 423.892L60.5354 447.041C57.8995 448.38 54.9852 449.078 52.0292 449.078C49.0733 449.078 46.159 448.38 43.5231 447.041L3.46326 423.892C2.51062 423.46 1.68569 422.788 1.06832 421.943C0.450951 421.098 0.0620728 420.108 -0.0606918 419.068V418.845Z" fill="url(#paint5_linear_80_641)"/>
<path opacity="0.3" d="M12.4756 416.068L41.1736 432.852L52.0898 436.906V449.189C49.1282 449.251 46.2001 448.553 43.5837 447.162L3.52388 424.014C2.57124 423.581 1.74632 422.91 1.12894 422.065C0.511574 421.22 0.122692 420.229 -7.24792e-05 419.189V418.967V409.885L2.28849 408.608H2.53151C3.32137 412.703 8.30354 415.541 12.4756 416.068Z" fill="#0F054C"/>
<path d="M60.5959 437.838L100.656 414.689C105.354 411.973 105.354 407.575 100.656 404.858L60.5959 381.71C57.96 380.371 55.0457 379.673 52.0898 379.673C49.1338 379.673 46.2195 380.371 43.5836 381.71L3.52378 404.858C-1.17484 407.575 -1.17484 411.973 3.52378 414.689L43.5836 437.838C46.2195 439.177 49.1338 439.875 52.0898 439.875C55.0457 439.875 57.96 439.177 60.5959 437.838Z" fill="url(#paint6_linear_80_641)"/>
<path d="M3.5241 414.669L43.5839 437.838C46.2198 439.177 49.1341 439.875 52.0901 439.875C55.046 439.875 57.9603 439.177 60.5962 437.838L100.656 414.689C101.529 414.275 102.297 413.668 102.9 412.913C103.504 412.158 103.928 411.275 104.139 410.331C104.186 411.493 103.877 412.641 103.255 413.622C102.632 414.604 101.726 415.372 100.656 415.824L60.5962 438.973C57.9603 440.312 55.046 441.01 52.0901 441.01C49.1341 441.01 46.2198 440.312 43.5839 438.973L3.5241 415.824C2.4576 415.373 1.55338 414.608 0.931267 413.631C0.309143 412.653 -0.00149536 411.509 0.0406342 410.351C0.255096 411.289 0.680305 412.165 1.28393 412.913C1.88756 413.661 2.65371 414.262 3.5241 414.669Z" fill="white"/>
<g opacity="0.3">
<path d="M178.366 533.757V524.676L180.877 523.277C181.586 527.554 186.629 530.392 190.841 530.98L219.539 547.764L232.076 552.304L272.055 531.649L271.143 531.122C274.546 529.521 276.389 525.852 278.252 522.527L280.945 524.129L282.545 524.575V533.899C282.45 534.957 282.073 535.971 281.453 536.834C280.833 537.697 279.994 538.377 279.021 538.804L238.921 561.973C236.282 563.303 233.369 563.995 230.415 563.995C227.461 563.995 224.548 563.303 221.909 561.973L181.849 538.804C180.896 538.372 180.071 537.701 179.454 536.855C178.837 536.01 178.448 535.02 178.325 533.98V533.757H178.366Z" fill="url(#paint7_linear_80_641)"/>
<path opacity="0.3" d="M190.841 531.081L219.539 547.865L230.456 551.818V564.101C227.495 564.155 224.568 563.458 221.949 562.074L181.89 538.905C180.937 538.473 180.112 537.802 179.495 536.956C178.877 536.111 178.488 535.121 178.366 534.081V533.858V524.777L180.654 523.5H180.897C181.687 527.615 186.669 530.392 190.841 531.081Z" fill="#0F054C"/>
<path d="M238.921 552.73L279.021 529.581C283.7 526.865 283.7 522.466 279.021 519.75L238.921 496.622C236.285 495.283 233.371 494.585 230.415 494.585C227.459 494.585 224.545 495.283 221.909 496.622L181.849 519.77C177.15 522.487 177.15 526.885 181.849 529.602L221.909 552.75C224.546 554.086 227.461 554.78 230.417 554.777C233.373 554.773 236.287 554.072 238.921 552.73Z" fill="url(#paint8_linear_80_641)"/>
<g opacity="0.3">
<path d="M238.921 552.73L279.021 529.581C283.7 526.865 283.7 522.466 279.021 519.75L238.921 496.622C236.285 495.283 233.371 494.585 230.415 494.585C227.459 494.585 224.545 495.283 221.909 496.622L181.849 519.77C177.15 522.487 177.15 526.885 181.849 529.602L221.909 552.75C224.546 554.086 227.461 554.78 230.417 554.777C233.373 554.773 236.287 554.072 238.921 552.73Z" fill="#0F054C"/>
</g>
</g>
<path d="M230.455 519.061C233.079 519.112 235.673 518.491 237.989 517.257L278.07 494.109C279.016 493.776 279.835 493.158 280.415 492.339C280.995 491.52 281.306 490.541 281.306 489.538C281.306 488.534 280.995 487.555 280.415 486.736C279.835 485.918 279.016 485.299 278.07 484.967L238.01 461.818C235.666 460.638 233.079 460.023 230.455 460.023C227.832 460.023 225.245 460.638 222.901 461.818L182.841 484.967C181.895 485.299 181.076 485.918 180.496 486.736C179.916 487.555 179.605 488.534 179.605 489.538C179.605 490.541 179.916 491.52 180.496 492.339C181.076 493.158 181.895 493.776 182.841 494.109L222.901 517.257C225.226 518.488 227.825 519.109 230.455 519.061ZM237.645 516.649C235.413 517.779 232.947 518.367 230.445 518.367C227.944 518.367 225.478 517.779 223.246 516.649L183.186 493.5C182.354 493.224 181.63 492.692 181.117 491.981C180.605 491.27 180.329 490.415 180.329 489.538C180.329 488.66 180.605 487.806 181.117 487.094C181.63 486.383 182.354 485.851 183.186 485.575L223.246 462.426C225.478 461.297 227.944 460.708 230.445 460.708C232.947 460.708 235.413 461.297 237.645 462.426L277.705 485.575C278.537 485.851 279.26 486.383 279.773 487.094C280.286 487.806 280.562 488.66 280.562 489.538C280.562 490.415 280.286 491.27 279.773 491.981C279.26 492.692 278.537 493.224 277.705 493.5L237.645 516.649Z" fill="#42E8E0"/>
<path opacity="0.4" d="M178.366 480.648V466.926L180.877 465.527C181.586 469.804 186.629 472.642 190.841 473.23L219.539 490.013L232.076 494.594L272.055 473.939L271.143 473.412C274.546 471.811 276.389 468.142 278.252 464.817L280.945 466.419L282.545 466.865V480.831C282.439 481.889 282.058 482.9 281.44 483.764C280.822 484.628 279.988 485.315 279.021 485.757L238.921 508.784C236.282 510.113 233.369 510.806 230.415 510.806C227.461 510.806 224.548 510.113 221.909 508.784L181.849 485.635C180.896 485.202 180.071 484.531 179.454 483.686C178.837 482.841 178.448 481.85 178.325 480.811V480.567L178.366 480.648Z" fill="#42E8E0"/>
<path d="M178.366 468.446V459.365L180.877 457.966C181.586 462.243 186.629 465.081 190.841 465.669L219.539 482.433L232.076 486.953L272.055 466.297L271.143 465.77C274.546 464.169 276.389 460.52 278.252 457.176L280.945 458.777L282.545 459.243V468.547C282.439 469.605 282.058 470.616 281.44 471.481C280.822 472.345 279.988 473.032 279.021 473.473L238.921 496.622C236.282 497.951 233.369 498.644 230.415 498.644C227.461 498.644 224.548 497.951 221.909 496.622L181.849 473.473C180.894 473.039 180.067 472.364 179.449 471.515C178.832 470.666 178.445 469.672 178.325 468.629V468.406L178.366 468.446Z" fill="url(#paint9_linear_80_641)"/>
<path opacity="0.3" d="M190.841 465.668L219.539 482.432L230.456 486.486V498.648C227.494 498.712 224.565 498.014 221.949 496.621L181.89 473.473C180.934 473.038 180.108 472.364 179.49 471.515C178.872 470.666 178.485 469.671 178.366 468.628V468.405V459.324L180.654 458.047H180.897C181.687 462.304 186.669 465.081 190.841 465.668Z" fill="#0F054C"/>
<path d="M238.921 487.419L279.021 464.189C283.7 461.493 283.7 457.074 279.021 454.358L238.921 431.291C236.282 429.961 233.369 429.269 230.415 429.269C227.461 429.269 224.548 429.961 221.909 431.291L181.849 454.439C177.15 457.156 177.15 461.574 181.849 464.27L221.909 487.419C224.545 488.758 227.459 489.456 230.415 489.456C233.371 489.456 236.285 488.758 238.921 487.419Z" fill="url(#paint10_linear_80_641)"/>
<path d="M230.455 483.223C232.83 483.263 235.177 482.705 237.28 481.601L268.571 463.5C269.426 463.196 270.167 462.634 270.691 461.892C271.214 461.149 271.496 460.263 271.496 459.354C271.496 458.446 271.214 457.559 270.691 456.817C270.167 456.075 269.426 455.513 268.571 455.209L237.28 437.128C235.164 436.059 232.826 435.502 230.455 435.502C228.084 435.502 225.747 436.059 223.63 437.128L192.34 455.209C191.524 455.576 190.821 456.155 190.304 456.885C189.788 457.616 189.477 458.472 189.403 459.364C189.488 460.241 189.805 461.078 190.321 461.791C190.837 462.504 191.534 463.065 192.34 463.418L223.63 481.52C225.726 482.652 228.073 483.238 230.455 483.223ZM236.916 480.993C234.908 482.002 232.692 482.527 230.445 482.527C228.198 482.527 225.982 482.002 223.974 480.993L192.684 462.891C191.981 462.585 191.372 462.097 190.92 461.477C190.468 460.857 190.189 460.128 190.112 459.364C190.191 458.599 190.471 457.868 190.923 457.245C191.374 456.623 191.982 456.13 192.684 455.817L223.974 437.837C225.981 436.824 228.197 436.295 230.445 436.295C232.693 436.295 234.909 436.824 236.916 437.837L268.227 455.918C268.929 456.231 269.536 456.724 269.988 457.347C270.44 457.97 270.719 458.7 270.799 459.466C270.722 460.229 270.443 460.959 269.991 461.579C269.539 462.199 268.93 462.687 268.227 462.993L236.916 480.993Z" fill="#5351AF"/>
<path d="M181.889 464.189L221.949 487.338C224.585 488.677 227.499 489.375 230.455 489.375C233.411 489.375 236.325 488.677 238.961 487.338L279.021 464.189C279.891 463.779 280.655 463.175 281.256 462.423C281.856 461.671 282.276 460.791 282.484 459.852C282.54 461.01 282.237 462.156 281.617 463.136C280.997 464.115 280.091 464.88 279.021 465.325L238.921 488.514C236.285 489.853 233.371 490.551 230.415 490.551C227.459 490.551 224.544 489.853 221.909 488.514L181.849 465.365C179.256 463.865 178.082 461.858 178.365 459.892C178.584 460.831 179.015 461.707 179.627 462.452C180.238 463.197 181.012 463.792 181.889 464.189Z" fill="white"/>
<g opacity="0.3">
<path d="M520.98 211.48V202.399L523.491 201C524.2 205.297 529.243 208.115 533.456 208.703L562.154 225.507L574.69 230.027L614.669 209.372L613.737 208.845C617.16 207.243 619.003 203.595 620.846 200.25L623.54 201.872L625.14 202.318V211.622C625.041 212.671 624.672 213.677 624.069 214.54C623.465 215.404 622.648 216.095 621.697 216.547L581.617 239.696C578.981 241.035 576.066 241.733 573.11 241.733C570.155 241.733 567.24 241.035 564.604 239.696L524.484 216.547C523.535 216.112 522.714 215.44 522.1 214.595C521.487 213.75 521.101 212.761 520.98 211.723V211.48Z" fill="url(#paint11_linear_80_641)"/>
<path opacity="0.3" d="M533.456 208.783L562.154 225.506L573.09 229.439V241.722C570.129 241.783 567.201 241.086 564.584 239.695L524.484 216.547C523.535 216.112 522.714 215.439 522.101 214.594C521.487 213.749 521.101 212.76 520.98 211.722V211.479V202.398L523.269 201.121H523.512C524.281 205.337 529.284 208.114 533.456 208.783Z" fill="#0F054C"/>
<path d="M581.556 230.473L621.697 207.324C626.375 204.608 626.375 200.189 621.697 197.493L581.576 174.324C578.937 172.985 576.019 172.287 573.06 172.287C570.101 172.287 567.183 172.985 564.544 174.324L524.484 197.493C519.806 200.189 519.806 204.608 524.484 207.324L564.544 230.473C567.182 231.802 570.096 232.495 573.05 232.495C576.004 232.495 578.917 231.802 581.556 230.473Z" fill="url(#paint12_linear_80_641)"/>
<g opacity="0.3">
<path d="M581.556 230.473L621.697 207.324C626.375 204.608 626.375 200.189 621.697 197.493L581.576 174.324C578.937 172.985 576.019 172.287 573.06 172.287C570.101 172.287 567.183 172.985 564.544 174.324L524.484 197.493C519.806 200.189 519.806 204.608 524.484 207.324L564.544 230.473C567.182 231.802 570.096 232.495 573.05 232.495C576.004 232.495 578.917 231.802 581.556 230.473Z" fill="#0F054C"/>
</g>
</g>
<path d="M573.09 202.703C575.721 202.761 578.323 202.139 580.644 200.899L620.664 177.771C621.612 177.443 622.435 176.828 623.017 176.011C623.6 175.193 623.913 174.214 623.913 173.21C623.913 172.206 623.6 171.227 623.017 170.409C622.435 169.592 621.612 168.976 620.664 168.649L580.604 145.5C578.267 144.311 575.682 143.691 573.06 143.691C570.438 143.691 567.853 144.311 565.516 145.5L525.456 168.649C524.507 168.976 523.685 169.592 523.102 170.409C522.52 171.227 522.207 172.206 522.207 173.21C522.207 174.214 522.52 175.193 523.102 176.011C523.685 176.828 524.507 177.443 525.456 177.771L565.516 200.919C567.843 202.162 570.453 202.777 573.09 202.703ZM573.09 144.365C575.601 144.312 578.084 144.905 580.3 146.088L620.319 169.257C621.214 169.461 622.013 169.964 622.586 170.682C623.158 171.4 623.47 172.291 623.47 173.21C623.47 174.129 623.158 175.02 622.586 175.738C622.013 176.456 621.214 176.958 620.319 177.163L580.26 200.311C578.03 201.45 575.563 202.044 573.06 202.044C570.557 202.044 568.089 201.45 565.86 200.311L525.8 177.163C524.905 176.958 524.106 176.456 523.534 175.738C522.961 175.02 522.65 174.129 522.65 173.21C522.65 172.291 522.961 171.4 523.534 170.682C524.106 169.964 524.905 169.461 525.8 169.257L565.86 146.109C568.082 144.921 570.572 144.328 573.09 144.386V144.365Z" fill="#42E8E0"/>
<path opacity="0.4" d="M520.98 164.331V150.587L523.491 149.189C524.2 153.486 529.243 156.304 533.456 156.891L562.154 173.695L574.69 178.216L614.669 157.581L613.737 157.033C617.16 155.432 619.003 151.783 620.846 148.459L623.54 150L625.14 150.445V164.412C625.048 165.468 624.682 166.482 624.078 167.353C623.474 168.224 622.653 168.922 621.697 169.378L581.556 192.567C578.92 193.906 576.006 194.604 573.05 194.604C570.094 194.604 567.179 193.906 564.544 192.567L524.484 169.378C523.535 168.943 522.714 168.27 522.1 167.425C521.487 166.58 521.101 165.591 520.98 164.554V164.331Z" fill="#42E8E0"/>
<path d="M520.98 152.128V143.027L523.491 141.648C524.2 145.925 529.243 148.743 533.456 149.331L562.154 166.216L574.69 170.675L614.669 150L613.737 149.452C617.16 147.851 619.003 144.202 620.846 140.878L623.54 142.479L625.14 142.925V152.25C625.041 153.299 624.672 154.304 624.069 155.168C623.465 156.031 622.648 156.723 621.697 157.175L581.556 180.405C578.92 181.744 576.006 182.442 573.05 182.442C570.094 182.442 567.179 181.744 564.544 180.405L524.484 157.175C523.535 156.74 522.714 156.067 522.1 155.222C521.487 154.377 521.101 153.389 520.98 152.351V152.128Z" fill="url(#paint13_linear_80_641)"/>
<path opacity="0.3" d="M533.456 149.331L562.154 166.216L573.05 170.27V182.432C570.088 182.493 567.16 181.796 564.544 180.405L524.484 157.176C523.535 156.74 522.714 156.068 522.1 155.223C521.487 154.378 521.101 153.389 520.98 152.351V152.128V143.027L523.269 141.75H523.512C524.281 145.946 529.284 148.764 533.456 149.331Z" fill="#0F054C"/>
<path d="M613.737 149.473L575.784 127.541C574.939 127.116 574.006 126.896 573.06 126.896C572.114 126.896 571.181 127.116 570.336 127.541L533.031 149.088L533.456 149.331C529.243 148.744 524.2 145.926 523.492 141.649L565.354 118.338L577.505 115.115L587.429 120.953L620.846 140.899C619.003 144.223 617.16 147.973 613.737 149.473Z" fill="url(#paint14_linear_80_641)"/>
<path opacity="0.3" d="M573.09 116.291L577.566 115.115L587.49 120.953L620.846 140.899C619.003 144.223 617.16 147.872 613.737 149.473L575.784 127.541C574.953 127.106 574.028 126.883 573.09 126.892V116.291Z" fill="#0F054C"/>
<path d="M581.556 171.101L621.697 147.973C626.375 145.256 626.375 140.858 621.697 138.142L581.576 114.973C578.937 113.633 576.019 112.936 573.06 112.936C570.101 112.936 567.183 113.633 564.544 114.973L524.484 138.121C519.806 140.837 519.806 145.236 524.484 147.952L564.544 171.101C567.18 172.44 570.094 173.138 573.05 173.138C576.006 173.138 578.92 172.44 581.556 171.101ZM570.336 118.398C571.181 117.974 572.114 117.753 573.06 117.753C574.006 117.753 574.939 117.974 575.784 118.398L615.844 141.466C616.17 141.579 616.453 141.791 616.654 142.072C616.854 142.354 616.962 142.691 616.962 143.037C616.962 143.383 616.854 143.72 616.654 144.001C616.453 144.283 616.17 144.495 615.844 144.608L575.784 167.756C574.939 168.181 574.006 168.402 573.06 168.402C572.114 168.402 571.181 168.181 570.336 167.756L530.276 144.608C529.95 144.495 529.667 144.283 529.466 144.001C529.266 143.72 529.158 143.383 529.158 143.037C529.158 142.691 529.266 142.354 529.466 142.072C529.667 141.791 529.95 141.579 530.276 141.466L570.336 118.398Z" fill="url(#paint15_linear_80_641)"/>
<path d="M530.276 141.466L570.336 118.317C571.181 117.893 572.114 117.672 573.06 117.672C574.006 117.672 574.938 117.893 575.784 118.317L615.844 141.466C616.836 142.034 617.18 142.865 616.836 143.493C616.621 143.064 616.273 142.715 615.844 142.5L575.784 119.452C574.938 119.028 574.006 118.807 573.06 118.807C572.114 118.807 571.181 119.028 570.336 119.452L530.276 142.601C529.847 142.816 529.499 143.165 529.284 143.594C528.939 142.865 529.263 142.034 530.276 141.466Z" fill="white"/>
<path d="M524.484 147.973L564.544 171.101C567.179 172.44 570.094 173.138 573.05 173.138C576.006 173.138 578.92 172.44 581.556 171.101L621.697 147.973C622.568 147.559 623.333 146.951 623.933 146.196C624.534 145.441 624.953 144.558 625.16 143.615C625.209 144.772 624.904 145.916 624.285 146.895C623.666 147.873 622.763 148.638 621.697 149.088L581.556 172.297C578.92 173.636 576.006 174.334 573.05 174.334C570.094 174.334 567.179 173.636 564.544 172.297L524.484 149.088C523.414 148.637 522.509 147.869 521.889 146.886C521.27 145.904 520.967 144.755 521.021 143.595C521.224 144.541 521.643 145.428 522.243 146.187C522.844 146.946 523.61 147.557 524.484 147.973Z" fill="white"/>
<path d="M580.442 170.453L620.502 147.305C624.552 144.953 624.552 141.223 620.502 138.771L580.442 115.541C578.153 114.382 575.625 113.777 573.06 113.777C570.495 113.777 567.966 114.382 565.678 115.541L525.618 138.771C521.567 141.122 521.567 144.953 525.618 147.305L565.678 170.453C567.966 171.613 570.495 172.217 573.06 172.217C575.625 172.217 578.153 171.613 580.442 170.453ZM569.202 117.75C570.396 117.14 571.718 116.822 573.06 116.822C574.401 116.822 575.723 117.14 576.918 117.75L616.978 140.818C617.438 140.979 617.836 141.279 618.118 141.677C618.4 142.074 618.552 142.55 618.552 143.038C618.552 143.525 618.4 144.001 618.118 144.399C617.836 144.796 617.438 145.096 616.978 145.257L576.918 168.406C575.723 169.016 574.401 169.334 573.06 169.334C571.718 169.334 570.396 169.016 569.202 168.406L529.142 145.257C528.682 145.096 528.283 144.796 528.001 144.399C527.719 144.001 527.568 143.525 527.568 143.038C527.568 142.55 527.719 142.074 528.001 141.677C528.283 141.279 528.682 140.979 529.142 140.818L569.202 117.75Z" fill="url(#paint16_linear_80_641)"/>
<path opacity="0.4" d="M570.336 118.317C571.181 117.893 572.114 117.672 573.06 117.672C574.006 117.672 574.939 117.893 575.784 118.317L615.844 141.466C616.17 141.579 616.453 141.791 616.654 142.072C616.854 142.354 616.962 142.691 616.962 143.037C616.962 143.383 616.854 143.72 616.654 144.001C616.453 144.283 616.17 144.495 615.844 144.608L575.784 167.756C574.939 168.181 574.006 168.402 573.06 168.402C572.114 168.402 571.181 168.181 570.336 167.756L530.276 144.608C529.95 144.495 529.667 144.283 529.466 144.001C529.266 143.72 529.158 143.383 529.158 143.037C529.158 142.691 529.266 142.354 529.466 142.072C529.667 141.791 529.95 141.579 530.276 141.466L570.336 118.317Z" fill="#42E8E0"/>
<path style="mix-blend-mode:lighten" opacity="0.5" d="M529.162 143.007V0H616.978V143.007C616.961 143.351 616.847 143.684 616.65 143.967C616.453 144.25 616.181 144.472 615.864 144.608L575.784 167.757C574.939 168.181 574.006 168.402 573.06 168.402C572.114 168.402 571.182 168.181 570.336 167.757L530.276 144.608C529.96 144.472 529.687 144.25 529.49 143.967C529.294 143.684 529.18 143.351 529.162 143.007Z" fill="url(#paint17_linear_80_641)"/>
<path d="M254.576 256.885C254.576 234.284 270.434 206.797 289.998 195.486C299.78 189.831 308.651 189.405 315.071 193.034L321.775 196.946L319.749 197.128C323.273 201.446 325.319 207.831 325.319 215.959C325.319 238.561 309.461 266.047 289.917 277.338C283.193 281.23 276.915 282.689 271.548 282.02L271.71 283.824L264.905 279.77L264.622 279.608C258.424 275.858 254.576 267.993 254.576 256.885Z" fill="#9FFFF8"/>
<path d="M271.715 283.801C257.882 275.808 257.881 249.892 271.711 225.916C285.542 201.94 307.967 188.983 321.8 196.976C335.633 204.969 335.634 230.886 321.804 254.862C307.973 278.838 285.548 291.794 271.715 283.801Z" fill="#42E8E0"/>
<path d="M337.309 159.183C324.205 140.798 321.106 109.196 330.544 88.6218C335.243 78.3245 342.149 72.7502 349.541 72.061L357.278 71.3516L355.799 72.6286C361.186 74.1083 366.553 78.1016 371.272 84.7908C384.376 103.196 387.474 134.798 378.037 155.352C374.817 162.426 370.563 167.27 365.885 169.845L367.06 171.223L359.222 171.933H358.817C351.445 172.399 343.769 168.243 337.309 159.183Z" fill="#9FFFF8"/>
<path d="M333.296 124.016C330.649 96.458 341.393 72.8779 357.292 71.3484C373.191 69.819 388.225 90.9194 390.872 118.478C393.518 146.036 382.775 169.616 366.875 171.145C350.976 172.675 335.942 151.574 333.296 124.016Z" fill="#42E8E0"/>
<g opacity="0.1">
<path d="M325.4 307.986C325.4 285.385 341.258 257.899 360.822 246.588C370.624 240.932 379.495 240.405 385.895 244.135L392.599 248.047L390.573 248.23C394.097 252.568 396.163 258.932 396.163 267.061C396.163 289.662 380.305 317.149 360.741 328.459C354.017 332.331 347.739 333.811 342.392 333.142L342.534 334.946L335.729 330.892L335.466 330.73C329.248 326.959 325.4 319.115 325.4 307.986Z" fill="#9FFFF8"/>
<path d="M342.539 334.898C328.706 326.905 328.705 300.988 342.535 277.012C356.366 253.036 378.791 240.08 392.624 248.073C406.456 256.066 406.458 281.982 392.627 305.958C378.797 329.934 356.371 342.891 342.539 334.898Z" fill="#42E8E0"/>
</g>
<path opacity="0.4" d="M365.298 344.879C389.723 344.879 414.168 339.507 432.76 328.764C450.845 318.304 460.81 304.439 460.81 289.561C460.81 274.683 450.845 260.838 432.76 250.379C395.576 228.892 335.04 228.892 297.836 250.379C279.751 260.838 269.786 274.703 269.806 289.561C269.827 304.419 279.751 318.304 297.836 328.764L298.018 328.46L297.836 328.764C316.448 339.507 340.873 344.879 365.298 344.879ZM365.298 234.953C389.601 234.953 413.904 240.304 432.415 250.987C450.278 261.304 460.101 275.007 460.101 289.5C460.101 303.993 450.278 317.757 432.415 328.014C395.414 349.419 335.202 349.419 298.201 328.014C280.338 317.696 270.495 304.014 270.495 289.5C270.495 274.987 280.338 261.243 298.201 250.987C316.691 240.304 340.995 234.953 365.298 234.953Z" fill="#42E8E0"/>
<path opacity="0.2" d="M365.298 359.696C396.305 359.696 427.312 352.885 450.906 339.243C473.852 325.986 486.47 308.351 486.47 289.561C486.47 270.77 473.852 253.074 450.906 239.898C403.717 212.615 326.899 212.615 279.69 239.898C256.764 253.155 244.126 270.79 244.126 289.561C244.126 308.331 256.764 326.047 279.69 339.243C303.284 352.885 334.291 359.696 365.298 359.696ZM365.298 220.135C396.183 220.135 427.048 226.925 450.562 240.506C473.265 253.621 485.781 271.054 485.781 289.561C485.781 308.067 473.265 325.5 450.562 338.635C403.555 365.797 327.02 365.797 280.054 338.635C257.331 325.52 244.835 308.088 244.835 289.561C244.835 271.034 257.331 253.621 280.054 240.506C303.547 227.027 334.433 220.135 365.298 220.135Z" fill="#42E8E0"/>
<path d="M365.298 333.203C384.558 333.203 403.778 328.966 418.461 320.494C432.638 312.244 440.597 301.257 440.597 289.561C440.597 277.865 432.739 266.879 418.461 258.649C389.155 241.703 341.501 241.703 312.134 258.649C297.957 266.879 290.018 277.865 290.018 289.561C290.018 301.257 297.876 312.244 312.134 320.494L312.317 320.189L312.134 320.494C326.797 328.966 346.058 333.203 365.298 333.203ZM365.298 246.629C384.436 246.629 403.555 250.845 418.117 259.257C432.152 267.365 439.888 278.129 439.888 289.561C439.888 300.994 432.152 311.858 418.117 319.966C388.993 336.791 341.602 336.791 312.479 319.966C298.444 311.858 290.707 301.095 290.707 289.561C290.707 278.027 298.444 267.365 312.499 259.257C327.061 250.845 346.26 246.629 365.298 246.629Z" fill="#42E8E0"/>
<path d="M325.4 307.986C325.4 285.385 341.258 257.899 360.822 246.588C370.624 240.932 379.495 240.405 385.895 244.135L392.599 248.047L390.573 248.23C394.097 252.568 396.163 258.932 396.163 267.061C396.163 289.662 380.305 317.149 360.741 328.459C354.017 332.331 347.739 333.811 342.392 333.142L342.534 334.946L335.729 330.892L335.466 330.73C329.248 326.959 325.4 319.115 325.4 307.986Z" fill="#9FFFF8"/>
<path d="M342.539 334.898C328.706 326.905 328.705 300.988 342.535 277.012C356.366 253.036 378.791 240.08 392.624 248.073C406.456 256.066 406.458 281.982 392.627 305.958C378.797 329.934 356.371 342.891 342.539 334.898Z" fill="#42E8E0"/>
<path opacity="0.4" d="M460.425 405.771L571.632 341.514C572.381 341.082 573.003 340.46 573.435 339.711C573.867 338.962 574.095 338.112 574.095 337.247C574.095 336.382 573.867 335.532 573.435 334.783C573.003 334.034 572.381 333.412 571.632 332.98L554.66 323.068C551.868 321.464 548.705 320.62 545.486 320.62C542.267 320.62 539.103 321.464 536.311 323.068L425.084 387.345C424.335 387.777 423.713 388.399 423.281 389.148C422.849 389.897 422.621 390.747 422.621 391.612C422.621 392.477 422.849 393.327 423.281 394.076C423.713 394.825 424.335 395.447 425.084 395.879L442.076 405.771C444.864 407.385 448.029 408.234 451.25 408.234C454.471 408.234 457.636 407.385 460.425 405.771Z" fill="#24126A"/>
<path d="M516.099 340.074L533.901 329.797L530.357 327.75L512.555 338.027L516.099 340.074Z" fill="#42E8E0"/>
<path d="M465.913 369.811L471.381 366.649L467.837 364.602L462.369 367.764L465.913 369.811Z" fill="#42E8E0"/>
<path d="M505.791 346.196L511.259 343.034L507.715 340.986L502.246 344.148L505.791 346.196Z" fill="#42E8E0"/>
<path d="M451.25 392.979C454.537 392.987 457.766 392.119 460.607 390.466L571.835 326.189C572.651 325.732 573.33 325.063 573.8 324.254C574.27 323.445 574.515 322.524 574.508 321.587C574.514 320.649 574.27 319.725 573.8 318.913C573.33 318.1 572.651 317.428 571.835 316.966L554.863 307.074C552.011 305.43 548.777 304.565 545.486 304.565C542.195 304.565 538.961 305.43 536.109 307.074L424.881 371.351C424.07 371.812 423.397 372.482 422.93 373.291C422.464 374.1 422.222 375.018 422.228 375.952C422.224 376.888 422.468 377.809 422.934 378.62C423.399 379.432 424.071 380.106 424.881 380.574L441.873 390.466C444.723 392.117 447.958 392.984 451.25 392.979ZM545.486 305.371C548.635 305.364 551.73 306.189 554.458 307.763L571.45 317.655C572.135 318.055 572.703 318.627 573.098 319.316C573.493 320.004 573.701 320.784 573.701 321.577C573.701 322.371 573.493 323.151 573.098 323.839C572.703 324.527 572.135 325.1 571.45 325.5L460.222 389.777C457.494 391.351 454.4 392.18 451.25 392.18C448.101 392.18 445.007 391.351 442.278 389.777L425.246 379.864C424.56 379.467 423.991 378.897 423.596 378.21C423.2 377.524 422.992 376.745 422.992 375.952C422.992 375.16 423.2 374.381 423.596 373.694C423.991 373.008 424.56 372.437 425.246 372.04L536.514 307.763C539.243 306.192 542.338 305.367 545.486 305.371Z" fill="#42E8E0"/>
</g>
<defs>
<linearGradient id="paint0_linear_80_641" x1="645.595" y1="308.291" x2="57.6795" y2="308.291" gradientUnits="userSpaceOnUse">
<stop stop-color="#BCBEFF"/>
<stop offset="0.15" stop-color="#A3A7F5"/>
<stop offset="0.39" stop-color="#8289E8"/>
<stop offset="0.61" stop-color="#6A73DF"/>
<stop offset="0.82" stop-color="#5C66D9"/>
<stop offset="1" stop-color="#5761D7"/>
</linearGradient>
<linearGradient id="paint1_linear_80_641" x1="269.746" y1="391.541" x2="434.055" y2="173.712" gradientUnits="userSpaceOnUse">
<stop stop-color="#42E8E0"/>
<stop offset="0.11" stop-color="#37B6BF"/>
<stop offset="0.22" stop-color="#2C87A1"/>
<stop offset="0.34" stop-color="#235F87"/>
<stop offset="0.46" stop-color="#1C3F72"/>
<stop offset="0.58" stop-color="#162561"/>
<stop offset="0.71" stop-color="#121355"/>
<stop offset="0.85" stop-color="#10084E"/>
<stop offset="1" stop-color="#0F054C"/>
</linearGradient>
<radialGradient id="paint2_radial_80_641" cx="0" cy="0" r="1" gradientUnits="userSpaceOnUse" gradientTransform="translate(366.229 288.121) rotate(180) scale(460.161 460.561)">
<stop stop-color="#42E8E0"/>
<stop offset="0.11" stop-color="#37B6BF"/>
<stop offset="0.22" stop-color="#2C87A1"/>
<stop offset="0.34" stop-color="#235F87"/>
<stop offset="0.46" stop-color="#1C3F72"/>
<stop offset="0.58" stop-color="#162561"/>
<stop offset="0.71" stop-color="#121355"/>
<stop offset="0.85" stop-color="#10084E"/>
<stop offset="1" stop-color="#0F054C"/>
</radialGradient>
<linearGradient id="paint3_linear_80_641" x1="93.8105" y1="452.595" x2="11.1235" y2="500.289" gradientUnits="userSpaceOnUse">
<stop stop-color="#BCBEFF"/>
<stop offset="0.23" stop-color="#AAADF8"/>
<stop offset="0.68" stop-color="#7C83E5"/>
<stop offset="1" stop-color="#5761D7"/>
</linearGradient>
<linearGradient id="paint4_linear_80_641" x1="104.18" y1="470.635" x2="-0.000183105" y2="470.635" gradientUnits="userSpaceOnUse">
<stop stop-color="#E9E9FD"/>
<stop offset="0.36" stop-color="#D3D2F9"/>
<stop offset="0.71" stop-color="#C5C4F7"/>
<stop offset="1" stop-color="#C0BFF6"/>
</linearGradient>
<linearGradient id="paint5_linear_80_641" x1="93.8105" y1="391.703" x2="11.1235" y2="439.398" gradientUnits="userSpaceOnUse">
<stop stop-color="#BCBEFF"/>
<stop offset="0.23" stop-color="#AAADF8"/>
<stop offset="0.68" stop-color="#7C83E5"/>
<stop offset="1" stop-color="#5761D7"/>
</linearGradient>
<linearGradient id="paint6_linear_80_641" x1="104.18" y1="409.764" x2="-0.000183105" y2="409.764" gradientUnits="userSpaceOnUse">
<stop stop-color="#E9E9FD"/>
<stop offset="0.36" stop-color="#D3D2F9"/>
<stop offset="0.71" stop-color="#C5C4F7"/>
<stop offset="1" stop-color="#C0BFF6"/>
</linearGradient>
<linearGradient id="paint7_linear_80_641" x1="272.176" y1="506.615" x2="189.489" y2="554.31" gradientUnits="userSpaceOnUse">
<stop stop-color="#BCBEFF"/>
<stop offset="0.23" stop-color="#AAADF8"/>
<stop offset="0.68" stop-color="#7C83E5"/>
<stop offset="1" stop-color="#5761D7"/>
</linearGradient>
<linearGradient id="paint8_linear_80_641" x1="282.545" y1="524.676" x2="178.366" y2="524.676" gradientUnits="userSpaceOnUse">
<stop stop-color="#E9E9FD"/>
<stop offset="0.36" stop-color="#D3D2F9"/>
<stop offset="0.71" stop-color="#C5C4F7"/>
<stop offset="1" stop-color="#C0BFF6"/>
</linearGradient>
<linearGradient id="paint9_linear_80_641" x1="272.176" y1="441.304" x2="189.489" y2="488.999" gradientUnits="userSpaceOnUse">
<stop stop-color="#BCBEFF"/>
<stop offset="0.23" stop-color="#AAADF8"/>
<stop offset="0.68" stop-color="#7C83E5"/>
<stop offset="1" stop-color="#5761D7"/>
</linearGradient>
<linearGradient id="paint10_linear_80_641" x1="282.545" y1="459.365" x2="178.366" y2="459.365" gradientUnits="userSpaceOnUse">
<stop stop-color="#E9E9FD"/>
<stop offset="0.36" stop-color="#D3D2F9"/>
<stop offset="0.71" stop-color="#C5C4F7"/>
<stop offset="1" stop-color="#C0BFF6"/>
</linearGradient>
<linearGradient id="paint11_linear_80_641" x1="614.791" y1="184.358" x2="532.103" y2="232.053" gradientUnits="userSpaceOnUse">
<stop stop-color="#BCBEFF"/>
<stop offset="0.23" stop-color="#AAADF8"/>
<stop offset="0.68" stop-color="#7C83E5"/>
<stop offset="1" stop-color="#5761D7"/>
</linearGradient>
<linearGradient id="paint12_linear_80_641" x1="625.14" y1="202.398" x2="520.98" y2="202.398" gradientUnits="userSpaceOnUse">
<stop stop-color="#E9E9FD"/>
<stop offset="0.36" stop-color="#D3D2F9"/>
<stop offset="0.71" stop-color="#C5C4F7"/>
<stop offset="1" stop-color="#C0BFF6"/>
</linearGradient>
<linearGradient id="paint13_linear_80_641" x1="614.791" y1="124.986" x2="532.103" y2="172.681" gradientUnits="userSpaceOnUse">
<stop stop-color="#BCBEFF"/>
<stop offset="0.23" stop-color="#AAADF8"/>
<stop offset="0.68" stop-color="#7C83E5"/>
<stop offset="1" stop-color="#5761D7"/>
</linearGradient>
<linearGradient id="paint14_linear_80_641" x1="609.829" y1="121.764" x2="536.077" y2="164.296" gradientUnits="userSpaceOnUse">
<stop offset="0.24" stop-color="#5761D7"/>
<stop offset="0.39" stop-color="#7A82E5"/>
<stop offset="0.55" stop-color="#979CF0"/>
<stop offset="0.7" stop-color="#ACAFF8"/>
<stop offset="0.85" stop-color="#B8BAFD"/>
<stop offset="1" stop-color="#BCBEFF"/>
</linearGradient>
<linearGradient id="paint15_linear_80_641" x1="625.14" y1="143.027" x2="520.98" y2="143.027" gradientUnits="userSpaceOnUse">
<stop stop-color="#E9E9FD"/>
<stop offset="0.36" stop-color="#D3D2F9"/>
<stop offset="0.71" stop-color="#C5C4F7"/>
<stop offset="1" stop-color="#C0BFF6"/>
</linearGradient>
<linearGradient id="paint16_linear_80_641" x1="623.54" y1="143.028" x2="522.58" y2="143.028" gradientUnits="userSpaceOnUse">
<stop stop-color="#E9E9FD"/>
<stop offset="0.36" stop-color="#D3D2F9"/>
<stop offset="0.71" stop-color="#C5C4F7"/>
<stop offset="1" stop-color="#C0BFF6"/>
</linearGradient>
<linearGradient id="paint17_linear_80_641" x1="573.07" y1="168.405" x2="573.07" y2="0" gradientUnits="userSpaceOnUse">
<stop stop-color="#42E8E0"/>
<stop offset="1" stop-color="#0F054C" stop-opacity="0"/>
</linearGradient>
<clipPath id="clip0_80_641">
<rect width="646" height="564" fill="white" transform="matrix(-1 0 0 1 646 0)"/>
</clipPath>
</defs>
</svg>
