<svg width="577" height="502" viewBox="0 0 577 502" fill="none" xmlns="http://www.w3.org/2000/svg">
<g style="mix-blend-mode:overlay">
<path d="M80 496L414.6 5.99997H497.9L163.3 496H80ZM122.7 270.6C98.9 270.6 77.9 265.233 59.7 254.5C41.5 243.3 27.0333 227.667 16.3 207.6C6.03333 187.067 0.9 163.033 0.9 135.5C0.9 107.967 6.03333 84.1667 16.3 64.1C27.0333 44.0333 41.5 28.4 59.7 17.2C77.9 5.99999 98.9 0.399997 122.7 0.399997C146.5 0.399997 167.5 5.99999 185.7 17.2C203.9 28.4 218.133 44.0333 228.4 64.1C238.667 84.1667 243.8 107.967 243.8 135.5C243.8 163.033 238.667 187.067 228.4 207.6C218.133 227.667 203.9 243.3 185.7 254.5C167.5 265.233 146.5 270.6 122.7 270.6ZM122.7 213.2C138.1 213.2 150.467 206.9 159.8 194.3C169.133 181.233 173.8 161.633 173.8 135.5C173.8 109.367 169.133 90 159.8 77.4C150.467 64.3333 138.1 57.8 122.7 57.8C107.767 57.8 95.4 64.3333 85.6 77.4C76.2667 90 71.6 109.367 71.6 135.5C71.6 161.167 76.2667 180.533 85.6 193.6C95.4 206.667 107.767 213.2 122.7 213.2ZM455.2 501.6C431.867 501.6 410.867 496.233 392.2 485.5C374 474.3 359.767 458.667 349.5 438.6C339.233 418.067 334.1 394.033 334.1 366.5C334.1 338.967 339.233 315.167 349.5 295.1C359.767 275.033 374 259.4 392.2 248.2C410.867 237 431.867 231.4 455.2 231.4C479.467 231.4 500.7 237 518.9 248.2C537.1 259.4 551.333 275.033 561.6 295.1C571.867 315.167 577 338.967 577 366.5C577 394.033 571.867 418.067 561.6 438.6C551.333 458.667 537.1 474.3 518.9 485.5C500.7 496.233 479.467 501.6 455.2 501.6ZM455.2 444.2C470.6 444.2 482.967 437.9 492.3 425.3C501.633 412.233 506.3 392.633 506.3 366.5C506.3 340.833 501.633 321.467 492.3 308.4C482.967 295.333 470.6 288.8 455.2 288.8C440.267 288.8 427.9 295.333 418.1 308.4C408.767 321 404.1 340.367 404.1 366.5C404.1 392.633 408.767 412.233 418.1 425.3C427.9 437.9 440.267 444.2 455.2 444.2Z" fill="white"/>
</g>
</svg>
