<svg width="577" height="502" viewBox="0 0 577 502" fill="none" xmlns="http://www.w3.org/2000/svg">
<path d="M80 496L79.1742 495.436L78.1062 497H80V496ZM414.6 5.99997V4.99997H414.072L413.774 5.43604L414.6 5.99997ZM497.9 5.99997L498.726 6.56389L499.794 4.99997H497.9V5.99997ZM163.3 496V497H163.828L164.126 496.564L163.3 496ZM59.7 254.5L59.1759 255.352L59.1839 255.357L59.192 255.361L59.7 254.5ZM16.3 207.6L15.4056 208.047L15.4117 208.059L15.4182 208.072L16.3 207.6ZM16.3 64.1L15.4182 63.6283L15.4139 63.6364L15.4098 63.6445L16.3 64.1ZM59.7 17.2L60.2241 18.0516L60.2241 18.0516L59.7 17.2ZM228.4 64.1L229.29 63.6445L229.29 63.6445L228.4 64.1ZM228.4 207.6L229.29 208.055L229.294 208.047L228.4 207.6ZM185.7 254.5L186.208 255.361L186.216 255.357L186.224 255.352L185.7 254.5ZM159.8 194.3L160.604 194.895L160.609 194.888L160.614 194.881L159.8 194.3ZM159.8 77.4L158.986 77.9812L158.991 77.9882L158.996 77.9952L159.8 77.4ZM85.6 77.4L84.8 76.8L84.7964 76.8047L85.6 77.4ZM85.6 193.6L84.7863 194.181L84.793 194.191L84.8 194.2L85.6 193.6ZM392.2 485.5L391.676 486.352L391.689 486.359L391.702 486.367L392.2 485.5ZM349.5 438.6L348.606 439.047L348.61 439.055L349.5 438.6ZM349.5 295.1L350.39 295.555L350.39 295.555L349.5 295.1ZM392.2 248.2L391.685 247.342L391.676 247.348L392.2 248.2ZM518.9 248.2L518.376 249.052L518.376 249.052L518.9 248.2ZM561.6 295.1L562.49 294.645L562.49 294.645L561.6 295.1ZM561.6 438.6L562.49 439.055L562.494 439.047L561.6 438.6ZM518.9 485.5L519.408 486.361L519.416 486.357L519.424 486.352L518.9 485.5ZM492.3 425.3L493.104 425.895L493.109 425.888L493.114 425.881L492.3 425.3ZM492.3 308.4L491.486 308.981L492.3 308.4ZM418.1 308.4L417.3 307.8L417.296 307.805L418.1 308.4ZM418.1 425.3L417.286 425.881L417.298 425.898L417.311 425.914L418.1 425.3ZM80.8258 496.564L415.426 6.56389L413.774 5.43604L79.1742 495.436L80.8258 496.564ZM414.6 6.99997H497.9V4.99997H414.6V6.99997ZM497.074 5.43604L162.474 495.436L164.126 496.564L498.726 6.56389L497.074 5.43604ZM163.3 495H80V497H163.3V495ZM122.7 269.6C99.0556 269.6 78.2354 264.27 60.208 253.639L59.192 255.361C77.5647 266.196 98.7444 271.6 122.7 271.6V269.6ZM60.2241 253.648C42.1847 242.547 27.8372 227.049 17.1818 207.128L15.4182 208.072C26.2294 228.284 40.8153 244.053 59.1759 255.352L60.2241 253.648ZM17.1944 207.153C7.0097 186.783 1.9 162.909 1.9 135.5H-0.0999995C-0.0999995 163.158 5.05697 187.35 15.4056 208.047L17.1944 207.153ZM1.9 135.5C1.9 108.09 7.00997 84.4533 17.1903 64.5554L15.4098 63.6445C5.05669 83.88 -0.0999995 107.843 -0.0999995 135.5H1.9ZM17.1818 64.5716C27.8372 44.6506 42.1847 29.1528 60.2241 18.0516L59.1759 16.3483C40.8153 27.6472 26.2294 43.4161 15.4182 63.6283L17.1818 64.5716ZM60.2241 18.0516C78.249 6.9594 99.0634 1.4 122.7 1.4V-0.600003C98.7366 -0.600003 77.551 5.04059 59.1759 16.3483L60.2241 18.0516ZM122.7 1.4C146.337 1.4 167.151 6.9594 185.176 18.0516L186.224 16.3483C167.849 5.04059 146.663 -0.600003 122.7 -0.600003V1.4ZM185.176 18.0516C203.211 29.1503 217.322 44.6426 227.51 64.5554L229.29 63.6445C218.945 43.4241 204.589 27.6497 186.224 16.3483L185.176 18.0516ZM227.51 64.5554C237.69 84.4533 242.8 108.09 242.8 135.5H244.8C244.8 107.843 239.643 83.88 229.29 63.6445L227.51 64.5554ZM242.8 135.5C242.8 162.909 237.69 186.783 227.506 207.153L229.294 208.047C239.643 187.35 244.8 163.158 244.8 135.5H242.8ZM227.51 207.145C217.322 227.057 203.211 242.55 185.176 253.648L186.224 255.352C204.589 244.05 218.945 228.276 229.29 208.055L227.51 207.145ZM185.192 253.639C167.165 264.27 146.344 269.6 122.7 269.6V271.6C146.656 271.6 167.835 266.196 186.208 255.361L185.192 253.639ZM122.7 214.2C138.424 214.2 151.086 207.744 160.604 194.895L158.996 193.705C149.848 206.056 137.776 212.2 122.7 212.2V214.2ZM160.614 194.881C170.123 181.568 174.8 161.722 174.8 135.5H172.8C172.8 161.544 168.144 180.898 158.986 193.719L160.614 194.881ZM174.8 135.5C174.8 109.282 170.125 89.6582 160.604 76.8047L158.996 77.9952C168.142 90.3418 172.8 109.451 172.8 135.5H174.8ZM160.614 76.8187C151.102 63.5025 138.439 56.8 122.7 56.8V58.8C137.761 58.8 149.831 65.1641 158.986 77.9812L160.614 76.8187ZM122.7 56.8C107.419 56.8 94.7684 63.5088 84.8 76.8L86.4 78C96.0316 65.1578 108.114 58.8 122.7 58.8V56.8ZM84.7964 76.8047C75.2754 89.6582 70.6 109.282 70.6 135.5H72.6C72.6 109.451 77.2579 90.3418 86.4036 77.9952L84.7964 76.8047ZM70.6 135.5C70.6 161.26 75.2788 180.871 84.7863 194.181L86.4137 193.019C77.2546 180.196 72.6 161.073 72.6 135.5H70.6ZM84.8 194.2C94.7684 207.491 107.419 214.2 122.7 214.2V212.2C108.114 212.2 96.0316 205.842 86.4 193L84.8 194.2ZM455.2 500.6C432.027 500.6 411.201 495.272 392.698 484.633L391.702 486.367C410.532 497.195 431.707 502.6 455.2 502.6V500.6ZM392.724 484.648C374.689 473.55 360.578 458.057 350.39 438.145L348.61 439.055C358.955 459.276 373.311 475.05 391.676 486.352L392.724 484.648ZM350.394 438.153C340.21 417.783 335.1 393.909 335.1 366.5H333.1C333.1 394.158 338.257 418.35 348.606 439.047L350.394 438.153ZM335.1 366.5C335.1 339.09 340.21 315.453 350.39 295.555L348.61 294.645C338.257 314.88 333.1 338.843 333.1 366.5H335.1ZM350.39 295.555C360.578 275.643 374.689 260.15 392.724 249.052L391.676 247.348C373.311 258.65 358.955 274.424 348.61 294.645L350.39 295.555ZM392.715 249.057C411.215 237.957 432.034 232.4 455.2 232.4V230.4C431.699 230.4 410.519 236.043 391.686 247.343L392.715 249.057ZM455.2 232.4C479.307 232.4 500.354 237.961 518.376 249.052L519.424 247.348C501.046 236.039 479.626 230.4 455.2 230.4V232.4ZM518.376 249.052C536.411 260.15 550.522 275.643 560.71 295.555L562.49 294.645C552.145 274.424 537.789 258.65 519.424 247.348L518.376 249.052ZM560.71 295.555C570.89 315.453 576 339.09 576 366.5H578C578 338.843 572.843 314.88 562.49 294.645L560.71 295.555ZM576 366.5C576 393.909 570.89 417.783 560.706 438.153L562.494 439.047C572.843 418.35 578 394.158 578 366.5H576ZM560.71 438.145C550.522 458.057 536.411 473.55 518.376 484.648L519.424 486.352C537.789 475.05 552.145 459.276 562.49 439.055L560.71 438.145ZM518.392 484.639C500.368 495.268 479.315 500.6 455.2 500.6V502.6C479.618 502.6 501.032 497.198 519.408 486.361L518.392 484.639ZM455.2 445.2C470.924 445.2 483.586 438.744 493.104 425.895L491.496 424.705C482.348 437.056 470.276 443.2 455.2 443.2V445.2ZM493.114 425.881C502.623 412.568 507.3 392.722 507.3 366.5H505.3C505.3 392.544 500.644 411.898 491.486 424.719L493.114 425.881ZM507.3 366.5C507.3 340.74 502.621 321.129 493.114 307.819L491.486 308.981C500.645 321.804 505.3 340.927 505.3 366.5H507.3ZM493.114 307.819C483.602 294.503 470.939 287.8 455.2 287.8V289.8C470.261 289.8 482.331 296.164 491.486 308.981L493.114 307.819ZM455.2 287.8C439.919 287.8 427.268 294.509 417.3 307.8L418.9 309C428.532 296.158 440.614 289.8 455.2 289.8V287.8ZM417.296 307.805C407.775 320.658 403.1 340.282 403.1 366.5H405.1C405.1 340.451 409.758 321.342 418.904 308.995L417.296 307.805ZM403.1 366.5C403.1 392.722 407.777 412.568 417.286 425.881L418.914 424.719C409.756 411.898 405.1 392.544 405.1 366.5H403.1ZM417.311 425.914C427.285 438.738 439.934 445.2 455.2 445.2V443.2C440.599 443.2 428.515 437.062 418.889 424.686L417.311 425.914Z" fill="white"/>
</svg>
